<svg xmlns="http://www.w3.org/2000/svg" width="256" height="256" viewBox="0 0 256 256" role="img" aria-label="KONTINUUM icon">
  <defs>
    <linearGradient id="bg" x1="0" y1="0" x2="1" y2="1">
      <stop offset="0" stop-color="#40B6FF"/>
      <stop offset="1" stop-color="#1297EA"/>
    </linearGradient>
  </defs>
  <rect width="256" height="256" rx="40" fill="url(#bg)"/>
  <g fill="#ffffff" stroke="#ffffff" stroke-linecap="round" stroke-width="8">
    <ellipse cx="95" cy="128" rx="52" ry="72" fill="none"/>
    <ellipse cx="161" cy="128" rx="52" ry="72" fill="none"/>
    <path d="M128 60v136"/>
    <path d="M70 98c12-14 22-18 36-18"/>
    <path d="M70 132c14-12 26-16 38-14"/>
    <path d="M76 162c12-8 22-10 32-8"/>
    <path d="M186 98c-12-14-22-18-36-18"/>
    <path d="M186 132c-14-12-26-16-38-14"/>
    <path d="M180 162c-12-8-22-10-32-8"/>
  </g>
</svg>
