<svg xmlns="http://www.w3.org/2000/svg" width="512" height="512" viewBox="0 0 512 512" role="img" aria-label="KONTINUUM logo">
  <defs>
    <radialGradient id="halo" cx="50%" cy="40%" r="70%">
      <stop offset="0" stop-color="#62C5FF"/>
      <stop offset="1" stop-color="#159CEC"/>
    </radialGradient>
  </defs>
  <rect width="512" height="512" rx="72" fill="url(#halo)"/>
  <g transform="translate(0 12) scale(2)" fill="none" stroke="#fff" stroke-width="6" stroke-linecap="round">
    <ellipse cx="95" cy="128" rx="52" ry="72"/>
    <ellipse cx="161" cy="128" rx="52" ry="72"/>
    <path d="M128 60v136"/>
    <path d="M70 98c12-14 22-18 36-18"/>
    <path d="M70 132c14-12 26-16 38-14"/>
    <path d="M76 162c12-8 22-10 32-8"/>
    <path d="M186 98c-12-14-22-18-36-18"/>
    <path d="M186 132c-14-12-26-16-38-14"/>
    <path d="M180 162c-12-8-22-10-32-8"/>
  </g>
  <text x="256" y="474" text-anchor="middle" fill="#ffffff" font-size="46" font-family="Inter, Arial, sans-serif" font-weight="700">KONTINUUM</text>
</svg>
